<svg version="1.1" viewBox="0 0 432.57 198" xmlns="http://www.w3.org/2000/svg"><defs><clipPath id="a"><path transform="matrix(1,0,0,-1,0,198)" d="M0 198H432.57V0H0Z"/></clipPath></defs><g clip-path="url(#a)"><path transform="matrix(1 0 0 -1 121.78 124.01)" d="m0 0c-1.97 0-3.04-0.99-3.04-2.52 0-1.44 0.99-2.51 3.5-2.51 3.43 0 5.93 1.83 5.93 3.95v1.07zm1.6 9.88c-2.73 0-4.71-1.06-6.23-2.81l-4.64 4.26c2.89 3.27 6.7 4.94 11.33 4.94 7.38 0 11.94-3.8 11.94-11.49v-15.21h-7.61v2.36c-1.75-2.06-4.25-3.04-7.3-3.04-5.25 0-9.66 2.58-9.66 8.67 0 5.1 4.49 7.61 10.2 7.61h6.77c-0.07 3.5-2.05 4.71-4.8 4.71" fill="#1B3A5C"/><path transform="matrix(1,0,0,-1,0,198)" d="m149.41 120.71h-7.61v-57.15h7.61z" fill="#1B3A5C"/><path transform="matrix(1 0 0 -1 164.7 124.01)" d="m0 0c-1.98 0-3.04-0.99-3.04-2.52 0-1.44 0.99-2.51 3.5-2.51 3.42 0 5.93 1.83 5.93 3.95v1.07zm1.6 9.88c-2.74 0-4.72-1.06-6.24-2.81l-4.64 4.26c2.89 3.27 6.69 4.94 11.34 4.94 7.37 0 11.94-3.8 11.94-11.49v-15.21h-7.61v2.36c-1.74-2.06-4.26-3.04-7.3-3.04-5.24 0-9.66 2.58-9.66 8.67 0 5.1 4.49 7.61 10.19 7.61h6.77c-0.07 3.5-2.05 4.71-4.79 4.71" fill="#1B3A5C"/><path transform="matrix(1 0 0 -1 180.85 108.41)" d="M0 0H8.52L14.75-12.62 20.76 0H28.37L14.45-26.7H14.14Z" fill="#1B3A5C"/><path transform="matrix(1 0 0 -1 220.95 124.01)" d="m0 0c-1.98 0-3.04-0.99-3.04-2.52 0-1.44 0.99-2.51 3.5-2.51 3.42 0 5.93 1.83 5.93 3.95v1.07zm1.6 9.88c-2.74 0-4.71-1.06-6.24-2.81l-4.64 4.26c2.89 3.27 6.69 4.94 11.34 4.94 7.37 0 11.94-3.8 11.94-11.49v-15.21h-7.6v2.36c-1.74-2.06-4.26-3.04-7.3-3.04-5.24 0-9.66 2.58-9.66 8.67 0 5.1 4.49 7.61 10.19 7.61h6.77c-0.08 3.5-2.05 4.71-4.79 4.71" fill="#1B3A5C"/><path transform="matrix(1 0 0 -1 240.82 108.41)" d="m0 0h7.61v-3.35c1.67 2.81 4.48 4.03 8.13 4.03 5.79 0 9.82-4.03 9.82-10.96v-15.75h-7.61v15.21c0 2.89-1.52 4.65-4.64 4.65-3.65 0-5.7-1.98-5.7-5.86v-14h-7.61z" fill="#1B3A5C"/><path transform="matrix(1 0 0 -1 279.61 134.44)" d="M0 0H-7.6V57.15H0V15.9L8.53 26.02H17.35L8.07 15.37 18.41 0H9.36L2.97 9.59 0 6.24Z" fill="#1B3A5C"/><path transform="matrix(1 0 0 -1 307.41 97.82)" d="m0 0c-1.98 0-3.04-0.99-3.04-2.51 0-1.44 0.99-2.51 3.5-2.51 3.42 0 5.93 1.82 5.93 3.95v1.07zm1.6 9.89c-2.74 0-4.72-1.06-6.24-2.81l-4.64 4.26c2.89 3.27 6.69 4.94 11.33 4.94 7.38 0 11.94-3.8 11.94-11.48v-15.21h-7.61v2.35c-1.74-2.05-4.26-3.04-7.3-3.04-5.25 0-9.66 2.59-9.66 8.67 0 5.1 4.49 7.61 10.19 7.61h6.77c-0.08 3.5-2.05 4.71-4.79 4.71" fill="#3D7AB5"/><path transform="matrix(1 0 0 -1 120.72 152)" d="M0 0C.08 .095 .159 .206 .238 .301 .396 .507 .57 .634 .792 .443 .903 .349 2.06-.761 3.47-.761 4.75-.761 5.59 .048 5.59 .982 5.59 2.08 4.64 2.73 2.82 3.48 1.08 4.25 .032 4.96 .032 6.76 .032 7.84 .888 9.58 3.4 9.58 4.96 9.58 6.11 8.77 6.11 8.77 6.21 8.73 6.4 8.54 6.21 8.24 6.15 8.14 6.08 8.03 6.02 7.94 5.88 7.71 5.72 7.65 5.46 7.79 5.35 7.86 4.36 8.52 3.39 8.52 1.71 8.52 1.2 7.44 1.2 6.78 1.2 5.72 2.01 5.1 3.34 4.55 5.48 3.67 6.86 2.87 6.86 1.03 6.86-.618 5.29-1.82 3.44-1.82 1.57-1.82 .302-.729 .096-.538-.031-.428-.189-.301 0 0" fill="#6d6e71"/><path transform="matrix(1 0 0 -1 129.58 142.88)" d="M0 0C0 .158 .143 .301 .302 .301H.903C1.08 .301 1.2 .158 1.2 0V-6.6C1.2-8.41 2.33-9.82 4.18-9.82 6.05-9.82 7.19-8.44 7.19-6.64V0C7.19 .158 7.32 .301 7.49 .301H8.09C8.25 .301 8.39 .158 8.39 0V-6.7C8.39-9.11 6.68-10.94 4.18-10.94 1.7-10.94 0-9.11 0-6.7Z" fill="#6d6e71"/><path transform="matrix(1 0 0 -1 140.19 152)" d="M0 0C.08 .095 .159 .206 .238 .301 .396 .507 .57 .634 .792 .443 .903 .349 2.06-.761 3.47-.761 4.75-.761 5.59 .048 5.59 .982 5.59 2.08 4.64 2.73 2.82 3.48 1.08 4.25 .032 4.96 .032 6.76 .032 7.84 .888 9.58 3.41 9.58 4.96 9.58 6.11 8.77 6.11 8.77 6.21 8.73 6.4 8.54 6.21 8.24 6.15 8.14 6.08 8.03 6.02 7.94 5.88 7.71 5.72 7.65 5.46 7.79 5.35 7.86 4.36 8.52 3.39 8.52 1.71 8.52 1.2 7.44 1.2 6.78 1.2 5.72 2.01 5.1 3.34 4.55 5.48 3.67 6.86 2.87 6.86 1.03 6.86-.618 5.29-1.82 3.44-1.82 1.57-1.82 .302-.729 .096-.538-.031-.428-.189-.301 0 0" fill="#6d6e71"/><path transform="matrix(1 0 0 -1 150.75 143.64)" d="M0 0H-2.76C-2.93 0-3.06 .143-3.06 .302V.761C-3.06 .919-2.93 1.06-2.76 1.06H3.96C4.13 1.06 4.26 .919 4.26 .761V.302C4.26 .143 4.13 0 3.96 0H1.2V-9.72C1.2-9.88 1.06-10.03 .902-10.03H.301C.143-10.03 0-9.88 0-9.72Z" fill="#6d6e71"/><path transform="matrix(1 0 0 -1 162 149.9)" d="M0 0C-.776 1.73-1.54 3.47-2.31 5.2H-2.44L-4.75 0ZM-7.52-3.36-2.71 7.3C-2.66 7.4-2.58 7.48-2.44 7.48H-2.28C-2.14 7.48-2.06 7.4-2.01 7.3L2.77-3.36C2.87-3.56 2.74-3.77 2.5-3.77H1.87C1.73-3.77 1.63-3.67 1.6-3.6L.428-.981H-5.2L-6.35-3.6C-6.38-3.67-6.48-3.77-6.62-3.77H-7.25C-7.49-3.77-7.62-3.56-7.52-3.36" fill="#6d6e71"/><path transform="matrix(1 0 0 -1 166.34 142.88)" d="M0 0C0 .158 .143 .301 .301 .301H.935C1.09 .301 1.24 .158 1.24 0V-10.48C1.24-10.64 1.09-10.79 .935-10.79H.301C.143-10.79 0-10.64 0-10.48Z" fill="#6d6e71"/><path transform="matrix(1 0 0 -1 170.64 142.71)" d="m0 0c0 0.16 0.14 0.28 0.3 0.28h0.4l7.14-8.9h0.03v8.44c0 0.16 0.13 0.3 0.3 0.3h0.56c0.16 0 0.3-0.14 0.3-0.3v-10.66c0-0.16-0.14-0.28-0.3-0.28h-0.29l-7.27 9.07h-0.02v-8.62c0-0.16-0.13-0.3-0.3-0.3h-0.55c-0.16 0-0.3 0.14-0.3 0.3z" fill="#6d6e71"/><path transform="matrix(1 0 0 -1 188.75 149.9)" d="M0 0C-.775 1.73-1.54 3.47-2.31 5.2H-2.44L-4.75 0ZM-7.52-3.36-2.71 7.3C-2.66 7.4-2.58 7.48-2.44 7.48H-2.28C-2.14 7.48-2.06 7.4-2.01 7.3L2.77-3.36C2.87-3.56 2.74-3.77 2.5-3.77H1.87C1.73-3.77 1.63-3.67 1.6-3.6L.428-.981H-5.2L-6.35-3.6C-6.38-3.67-6.48-3.77-6.62-3.77H-7.25C-7.49-3.77-7.62-3.56-7.52-3.36" fill="#6d6e71"/><path transform="matrix(1 0 0 -1 196.85 147.55)" d="m0 0c1.22 0 1.9 0.87 1.9 1.98 0 1.14-0.68 1.9-1.9 1.9h-2.58v-3.88zm0.27-5.05c1.16 0 2 0.87 2 2.01 0 1.12-1.03 1.95-2.27 1.95h-2.61v-3.96zm-4.04 9.72c0 0.16 0.13 0.3 0.3 0.3h3.47c1.93 0 3.25-1.25 3.25-2.91 0-1.22-0.81-2.11-1.55-2.54 0.84-0.35 1.9-1.12 1.9-2.58 0-1.77-1.41-3.06-3.45-3.06h-3.61c-0.17 0-0.3 0.14-0.3 0.3z" fill="#6d6e71"/><path transform="matrix(1 0 0 -1 202.83 142.88)" d="m0 0c0 0.16 0.13 0.3 0.3 0.3h0.62c0.16 0 0.3-0.14 0.3-0.3v-9.72h4.56c0.17 0 0.3-0.14 0.3-0.3v-0.46c0-0.16-0.13-0.3-0.3-0.3h-5.48c-0.17 0-0.3 0.14-0.3 0.3z" fill="#6d6e71"/><path transform="matrix(1 0 0 -1 210.44 142.88)" d="m0 0c0 0.16 0.13 0.3 0.3 0.3h6.24c0.17 0 0.3-0.14 0.3-0.3v-0.46c0-0.16-0.13-0.3-0.3-0.3h-5.32v-3.86h4.55c0.16 0 0.3-0.14 0.3-0.3v-0.46c0-0.17-0.14-0.3-0.3-0.3h-4.55v-4.04h5.32c0.17 0 0.3-0.14 0.3-0.3v-0.46c0-0.16-0.13-0.3-0.3-0.3h-6.24c-0.17 0-0.3 0.14-0.3 0.3z" fill="#6d6e71"/><path transform="matrix(1 0 0 -1 227.93 142.42)" d="m0 0c1.6 0 2.76-0.55 3.83-1.47 0.13-0.13 0.14-0.32 0.02-0.44-0.14-0.14-0.32-0.3-0.44-0.44-0.14-0.16-0.24-0.14-0.41 0.01-0.81 0.71-1.95 1.24-3.01 1.24-2.5 0-4.4-2.09-4.4-4.55 0-2.44 1.9-4.58 4.4-4.58 1.74 0 2.85 0.67 2.85 0.67v2.22h-1.82c-0.17 0-0.3 0.13-0.3 0.29v0.58c0 0.17 0.13 0.3 0.3 0.3h2.74c0.16 0 0.28-0.14 0.28-0.3v-3.63c0-0.08-0.06-0.21-0.13-0.25 0 0-1.61-1.04-3.91-1.04-3.17 0-5.72 2.52-5.72 5.68 0 3.17 2.55 5.72 5.72 5.72" fill="#6d6e71"/><path transform="matrix(1 0 0 -1 238.78 148.28)" d="m0 0c1.22 0 2.28 1.01 2.28 2.31 0 1.2-1.06 2.23-2.28 2.23h-3.07v-4.55zm-4.32 5.4c0 0.16 0.13 0.3 0.3 0.3h4.1c1.9 0 3.45-1.49 3.45-3.37 0-1.46-0.97-2.68-2.35-3.23l2.17-4.02c0.11-0.21 0-0.46-0.27-0.46h-0.81c-0.14 0-0.22 0.08-0.25 0.14l-2.11 4.2h-3.02v-4.04c0-0.16-0.14-0.3-0.3-0.3h-0.62c-0.17 0-0.3 0.14-0.3 0.3z" fill="#6d6e71"/><path transform="matrix(1 0 0 -1 249.64 152.72)" d="m0 0c2.52 0 4.59 2.06 4.59 4.58 0 2.52-2.08 4.61-4.59 4.61-2.52 0-4.58-2.09-4.58-4.61 0-2.52 2.06-4.58 4.58-4.58m0 10.29c3.17 0 5.7-2.55 5.7-5.72 0-3.17-2.53-5.68-5.7-5.68-3.17 0-5.69 2.52-5.69 5.68 0 3.17 2.52 5.72 5.69 5.72" fill="#6d6e71"/><path transform="matrix(1 0 0 -1 256.52 142.96)" d="m0 0c-0.06 0.22 0.06 0.38 0.28 0.38h0.67c0.13 0 0.25-0.11 0.28-0.22l2.2-8.2h0.06l2.65 8.41c0.03 0.1 0.13 0.17 0.27 0.17h0.28c0.13 0 0.24-0.08 0.27-0.17l2.69-8.41h0.06l2.15 8.2c0.03 0.11 0.16 0.22 0.28 0.22h0.67c0.22 0 0.35-0.16 0.28-0.38l-2.99-10.64c-0.03-0.13-0.16-0.22-0.28-0.22h-0.25c-0.11 0-0.22 0.08-0.27 0.17l-2.74 8.57h-0.08l-2.69-8.57c-0.05-0.1-0.16-0.17-0.27-0.17h-0.25c-0.13 0-0.25 0.09-0.28 0.22z" fill="#6d6e71"/><path transform="matrix(1 0 0 -1 273.24 143.64)" d="M0 0H-2.76C-2.93 0-3.06 .143-3.06 .302V.761C-3.06 .919-2.93 1.06-2.76 1.06H3.96C4.13 1.06 4.26 .919 4.26 .761V.302C4.26 .143 4.13 0 3.96 0H1.2V-9.72C1.2-9.88 1.06-10.03 .902-10.03H.301C.143-10.03 0-9.88 0-9.72Z" fill="#6d6e71"/><path transform="matrix(1 0 0 -1 279.08 142.88)" d="M0 0C0 .158 .143 .301 .301 .301H.919C1.09 .301 1.22 .158 1.22 0V-4.62H7.65V0C7.65 .158 7.78 .301 7.95 .301H8.57C8.73 .301 8.87 .158 8.87 0V-10.48C8.87-10.64 8.73-10.79 8.57-10.79H7.95C7.78-10.79 7.65-10.64 7.65-10.48V-5.69H1.22V-10.48C1.22-10.64 1.09-10.79 .919-10.79H.301C.143-10.79 0-10.64 0-10.48Z" fill="#6d6e71"/></g></svg>